<svg xmlns="http://www.w3.org/2000/svg" width="1280" height="800"><rect width="1280" height="800" fill="#f8fafc"/><g font-family="Arial" fill="#0f172a"><text x="32" y="45" font-size="22" font-weight="700">Application Completeness Check</text><text x="32" y="70" fill="#64748b">Backend checklist blockers and append-only deficiency history</text><rect x="32" y="100" width="320" height="650" rx="10" fill="#fff" stroke="#e2e8f0"/><rect x="372" y="100" width="876" height="260" rx="10" fill="#fff" stroke="#e2e8f0"/><rect x="372" y="380" width="876" height="370" rx="10" fill="#fff" stroke="#e2e8f0"/><text x="52" y="135" fill="#64748b" font-size="12" font-weight="700">COMPLETENESS QUEUE (2)</text><text x="52" y="190" font-weight="700">LO00000042</text><text x="52" y="215" fill="#64748b">Visual Ready Borrower</text><rect x="33" y="255" width="318" height="125" fill="#f0fdf4"/><rect x="33" y="255" width="4" height="125" fill="#22c55e"/><text x="52" y="290" font-weight="700">app-deficient</text><text x="52" y="315" fill="#64748b">Visual Deficient Borrower</text><text x="400" y="138" fill="#64748b" font-size="12" font-weight="700">MANDATORY COMPLETENESS CHECKLIST · 0/1 VERIFIED</text><rect x="373" y="165" width="874" height="194" fill="#fef2f2"/><text x="400" y="215" font-size="18" font-weight="700">Borrower PAN</text><text x="400" y="248" fill="#64748b">Submission: Missing · Verification: Pending</text><text x="400" y="280" fill="#b91c1c">Missing Metadata</text><text x="1065" y="215" fill="#991b1b" font-weight="700">Deficiency Raised</text><text x="400" y="420" fill="#64748b" font-size="12" font-weight="700">DEFICIENCY HISTORY</text><text x="400" y="475" font-weight="700">Borrower PAN</text><text x="400" y="502" fill="#64748b">Current PAN copy is missing.</text><text x="1100" y="475">Open</text><line x1="400" y1="535" x2="1210" y2="535" stroke="#e2e8f0"/><text x="400" y="585" font-weight="700">Borrower PAN</text><text x="400" y="612" fill="#64748b">Earlier PAN copy was unclear.</text><text x="400" y="642" fill="#166534">Verified replacement from borrower.</text><text x="1080" y="585" fill="#166534">Resolved</text><rect x="1010" y="680" width="200" height="44" rx="8" fill="#fff" stroke="#cbd5e1"/><text x="1040" y="708" font-weight="700">Return for deficiency</text></g></svg>
