<svg xmlns="http://www.w3.org/2000/svg" width="1280" height="800"><rect width="1280" height="800" fill="#f8fafc"/><g font-family="Arial" fill="#0f172a"><text x="32" y="45" font-size="22" font-weight="700">Application Completeness Check</text><text x="32" y="70" fill="#64748b">S12 review · 2 applications awaiting completeness decision</text><g fill="#fff" stroke="#e2e8f0"><rect x="32" y="95" width="280" height="90" rx="10"/><rect x="328" y="95" width="280" height="90" rx="10"/><rect x="624" y="95" width="280" height="90" rx="10"/><rect x="920" y="95" width="328" height="90" rx="10"/><rect x="32" y="205" width="330" height="550" rx="10"/><rect x="382" y="205" width="866" height="245" rx="10"/><rect x="382" y="470" width="866" height="285" rx="10"/></g><g fill="#64748b" font-size="12"><text x="50" y="122">APPLICATIONS IN QUEUE</text><text x="346" y="122">READY FOR REFERENCE</text><text x="642" y="122">CHECKLIST ITEMS PENDING</text><text x="938" y="122">OPEN DEFICIENCIES</text></g><g font-size="30" font-weight="700"><text x="50" y="165">2</text><text x="346" y="165">1</text><text x="642" y="165">0</text><text x="938" y="165">0</text></g><text x="50" y="238" fill="#64748b" font-size="12" font-weight="700">COMPLETENESS QUEUE (2)</text><rect x="33" y="255" width="328" height="115" fill="#f0fdf4"/><rect x="33" y="255" width="4" height="115" fill="#22c55e"/><text x="50" y="285" font-weight="700">app-ready</text><text x="50" y="310" fill="#64748b">Visual Ready Borrower · ₹2,50,000</text><text x="50" y="340" fill="#1e3a8a">Pending Completeness</text><text x="50" y="405" font-weight="700">app-deficient</text><text x="50" y="430" fill="#64748b">Visual Deficient Borrower · ₹1,80,000</text><text x="410" y="245" font-size="20" font-weight="700">app-ready</text><text x="410" y="272" fill="#64748b">Visual Ready Borrower · Applied 10/7/2026</text><g font-size="12" fill="#64748b"><text x="410" y="320">FOLIO</text><text x="605" y="320">KYC STATUS</text><text x="800" y="320">REQUESTED AMOUNT</text><text x="995" y="320">NOMINEE STATUS</text></g><g font-weight="700"><text x="410" y="350">FOL-READY</text><text x="605" y="350">Verified</text><text x="800" y="350">₹2,50,000</text><text x="995" y="350">Valid</text></g><text x="410" y="505" fill="#64748b" font-size="12" font-weight="700">MANDATORY COMPLETENESS CHECKLIST · 1/1 VERIFIED</text><text x="410" y="560" font-size="17" font-weight="700">Borrower PAN</text><text x="410" y="590" fill="#64748b">Submission: Submitted · Verification: Verified</text><text x="1100" y="560" fill="#166534" font-weight="700">Complete</text><rect x="970" y="660" width="245" height="48" rx="8" fill="#15803d"/><text x="1000" y="691" fill="#fff" font-weight="700">Generate reference number</text></g></svg>
